<svg id="Capa_1" enable-background="new 0 0 512 512" height="512" viewBox="0 0 512 512" width="512" xmlns="http://www.w3.org/2000/svg"><g><path d="m181 406h150v91h-150z" fill="#d8dbf0"/><path d="m256 406h75v91h-75z" fill="#b8b8d9"/><path d="m512 76v330c0 8.399-6.599 15-15 15h-482c-8.401 0-15-6.601-15-15v-330c0-8.401 6.599-15 15-15h482c8.401 0 15 6.599 15 15z" fill="#664d99"/><path d="m512 76v330c0 8.399-6.599 15-15 15h-241v-360h241c8.401 0 15 6.599 15 15z" fill="#4d4573"/><path d="m30 91h452v300h-452z" fill="#ffe666"/><path d="m391 497c0 8.399-6.599 15-15 15h-240c-8.401 0-15-6.601-15-15 0-8.401 6.599-15 15-15h240c8.401 0 15 6.599 15 15z" fill="#f3f5f9"/><path d="m391 497c0 8.399-6.599 15-15 15h-120v-30h120c8.401 0 15 6.599 15 15z" fill="#d8dbf0"/><path d="m256 91h226v300h-226z" fill="#ffc44d"/><path d="m452 121v225c0 8.399-6.599 15-15 15h-362c-8.401 0-15-6.601-15-15v-225l30-30h332z" fill="#f3f5f9"/><path d="m452 121v225c0 8.399-6.599 15-15 15h-181v-270h166z" fill="#d8dbf0"/><path d="m226 211h-90c-8.291 0-15-6.709-15-15s6.709-15 15-15h90c8.291 0 15 6.709 15 15s-6.709 15-15 15z" fill="#b8b8d9"/><path d="m226 271h-90c-8.291 0-15-6.709-15-15s6.709-15 15-15h90c8.291 0 15 6.709 15 15s-6.709 15-15 15z" fill="#b8b8d9"/><path d="m365.395 296.605-30-30c-5.859-5.859-5.859-15.352 0-21.211s15.352-5.859 21.211 0l30 30c5.859 5.859 5.859 15.352 0 21.211-5.86 5.86-15.352 5.86-21.211 0z" fill="#4d4573"/><g><path d="m312.543 300.604c-5.039-1.201-9.141-4.922-10.781-9.858l-30-90c-1.787-5.391-.381-11.338 3.633-15.352 4.043-3.984 9.99-5.435 15.352-3.618l90 30c4.922 1.641 8.672 5.713 9.844 10.781 1.201 5.054-.293 10.371-3.984 14.048l-60 60c-3.619 3.618-8.885 5.195-14.064 3.999z" fill="#4d4573"/></g><path d="m452 15v106h-392v-106c0-8.401 6.599-15 15-15h362c8.401 0 15 6.599 15 15z" fill="#ff66e5"/><path d="m452 15v106h-196v-121h181c8.401 0 15 6.599 15 15z" fill="#e645b1"/><g fill="#f3f5f9"><circle cx="136" cy="61" r="15"/><circle cx="196" cy="61" r="15"/><circle cx="256" cy="61" r="15"/></g><path d="m271 61c0 8.399-6.599 15-15 15v-30c8.401 0 15 6.599 15 15z" fill="#d8dbf0"/></g></svg>